<svg width="63" height="53" viewBox="0 0 63 53" fill="none">
  <path d="M61.1716 42.3585H56.2384V17.6925C56.2371 16.3846 55.7169 15.1306 54.7921 14.2057C53.8672 13.2808 52.6132 12.7606 51.3052 12.7593H36.5057V10.7861H39.4656C39.6608 10.7862 39.8517 10.7284 40.0141 10.62C40.1765 10.5116 40.3031 10.3575 40.3778 10.1771C40.4526 9.99672 40.4721 9.79822 40.434 9.60673C40.3958 9.41524 40.3018 9.23937 40.1636 9.10138L32.2705 1.20828C32.0852 1.02346 31.8342 0.919678 31.5725 0.919678C31.3108 0.919678 31.0597 1.02346 30.8744 1.20828L22.9813 9.10138C22.8432 9.23937 22.7491 9.41524 22.7109 9.60673C22.6728 9.79822 22.6924 9.99672 22.7671 10.1771C22.8418 10.3575 22.9684 10.5116 23.1308 10.62C23.2932 10.7284 23.4841 10.7862 23.6794 10.7861H26.6393V12.7593H11.8397C10.5317 12.7606 9.27773 13.2808 8.35286 14.2057C7.42799 15.1306 6.90783 16.3846 6.90652 17.6925V42.3585H1.97333C1.71166 42.3585 1.4607 42.4624 1.27567 42.6475C1.09064 42.8325 0.986694 43.0834 0.986694 43.3451V47.2917C0.988 48.5996 1.50816 49.8536 2.43303 50.7785C3.3579 51.7034 4.61192 52.2235 5.91988 52.2249H57.225C58.533 52.2235 59.787 51.7034 60.7119 50.7785C61.6368 49.8536 62.1569 48.5996 62.1582 47.2917V43.3451C62.1582 43.0834 62.0543 42.8325 61.8693 42.6475C61.6842 42.4624 61.4333 42.3585 61.1716 42.3585ZM26.0609 8.81279L31.5725 3.30119L37.0841 8.81279H35.519C35.2573 8.81279 35.0064 8.91674 34.8214 9.10177C34.6363 9.2868 34.5324 9.53776 34.5324 9.79943V24.599H28.6126V9.79943C28.6126 9.53776 28.5086 9.2868 28.3236 9.10177C28.1385 8.91674 27.8876 8.81279 27.6259 8.81279H26.0609ZM27.6259 26.5723H35.519C35.7807 26.5723 36.0316 26.4683 36.2167 26.2833C36.4017 26.0983 36.5057 25.8473 36.5057 25.5856V17.6925H51.3052V39.3986H11.8397V17.6925H26.6393V25.5856C26.6393 25.8473 26.7432 26.0983 26.9283 26.2833C27.1133 26.4683 27.3642 26.5723 27.6259 26.5723ZM8.8798 17.6925C8.88084 16.9078 9.19302 16.1556 9.74789 15.6007C10.3028 15.0458 11.055 14.7337 11.8397 14.7326H26.6393V15.7193H10.8531C10.5914 15.7193 10.3404 15.8232 10.1554 16.0082C9.97038 16.1933 9.86643 16.4442 9.86643 16.7059V40.3852C9.86643 40.6469 9.97038 40.8978 10.1554 41.0829C10.3404 41.2679 10.5914 41.3718 10.8531 41.3718H52.2919C52.5535 41.3718 52.8045 41.2679 52.9895 41.0829C53.1745 40.8978 53.2785 40.6469 53.2785 40.3852V16.7059C53.2785 16.4442 53.1745 16.1933 52.9895 16.0082C52.8045 15.8232 52.5535 15.7193 52.2919 15.7193H36.5057V14.7326H51.3052C52.0899 14.7337 52.8422 15.0458 53.397 15.6007C53.9519 16.1556 54.2641 16.9078 54.2651 17.6925V42.3585H8.8798V17.6925ZM36.0691 44.3318L35.6991 45.3184H27.3509L27.0216 44.3318H36.0691ZM60.185 47.2917C60.1839 48.0764 59.8717 48.8286 59.3169 49.3835C58.762 49.9384 58.0097 50.2505 57.225 50.2516H5.91988C5.13519 50.2505 4.38293 49.9384 3.82806 49.3835C3.2732 48.8286 2.96101 48.0764 2.95997 47.2917V44.3318H24.941L25.7032 46.6171C25.7687 46.8135 25.8943 46.9844 26.0623 47.1055C26.2303 47.2265 26.4322 47.2917 26.6393 47.2917H36.3823C36.5831 47.2916 36.7791 47.2303 36.9442 47.1159C37.1092 47.0015 37.2355 46.8396 37.3061 46.6516L38.1755 44.3318H60.185V47.2917Z" fill="#F2994A"/>
  <path d="M14.7997 45.3184H4.93329C4.67162 45.3184 4.42067 45.4223 4.23564 45.6073C4.0506 45.7924 3.94666 46.0433 3.94666 46.305C3.94666 46.5667 4.0506 46.8176 4.23564 47.0027C4.42067 47.1877 4.67162 47.2916 4.93329 47.2916H14.7997C15.0613 47.2916 15.3123 47.1877 15.4973 47.0027C15.6824 46.8176 15.7863 46.5667 15.7863 46.305C15.7863 46.0433 15.6824 45.7924 15.4973 45.6073C15.3123 45.4223 15.0613 45.3184 14.7997 45.3184Z" fill="#F2994A"/>
  <path d="M18.7462 45.3184H17.7596C17.4979 45.3184 17.247 45.4223 17.0619 45.6073C16.8769 45.7924 16.7729 46.0433 16.7729 46.305C16.7729 46.5667 16.8769 46.8176 17.0619 47.0027C17.247 47.1877 17.4979 47.2916 17.7596 47.2916H18.7462C19.0079 47.2916 19.2589 47.1877 19.4439 47.0027C19.6289 46.8176 19.7329 46.5667 19.7329 46.305C19.7329 46.0433 19.6289 45.7924 19.4439 45.6073C19.2589 45.4223 19.0079 45.3184 18.7462 45.3184Z" fill="#F2994A"/>
  <path d="M22.6927 29.5323C22.6927 29.794 22.7967 30.0449 22.9817 30.23C23.1668 30.415 23.4177 30.5189 23.6794 30.5189H39.4656C39.7273 30.5189 39.9782 30.415 40.1632 30.23C40.3483 30.0449 40.4522 29.794 40.4522 29.5323C40.4522 29.2706 40.3483 29.0197 40.1632 28.8346C39.9782 28.6496 39.7273 28.5457 39.4656 28.5457H23.6794C23.4177 28.5457 23.1668 28.6496 22.9817 28.8346C22.7967 29.0197 22.6927 29.2706 22.6927 29.5323Z" fill="#F2994A"/>
</svg>
