<svg width="20" height="20" viewBox="0 0 20 20" fill="none" xmlns="http://www.w3.org/2000/svg">
<path d="M17.9262 6.97375C17.4925 6.3825 16.8875 5.69 16.2238 5.02625C15.56 4.3625 14.8675 3.7575 14.2762 3.32375C13.2687 2.585 12.78 2.5 12.5 2.5H5.3125C4.45125 2.5 3.75 3.20125 3.75 4.0625V18.4375C3.75 19.2987 4.45125 20 5.3125 20H17.1875C18.0487 20 18.75 19.2987 18.75 18.4375V8.75C18.75 8.47 18.665 7.98125 17.9262 6.97375ZM15.3387 5.91125C15.9388 6.51125 16.4087 7.05125 16.7562 7.5H13.7487V4.49375C14.1975 4.84125 14.7388 5.31125 15.3375 5.91125H15.3387ZM17.5 18.4375C17.5 18.6075 17.3575 18.75 17.1875 18.75H5.3125C5.22992 18.749 5.151 18.7158 5.09261 18.6574C5.03421 18.599 5.00097 18.5201 5 18.4375V4.0625C5 3.89375 5.1425 3.75 5.3125 3.75H12.5V8.125C12.5 8.29076 12.5658 8.44973 12.6831 8.56694C12.8003 8.68415 12.9592 8.75 13.125 8.75H17.5V18.4375Z" fill="#4F4F4F"/>
<path d="M11.7762 0.82375C10.7687 0.0849999 10.28 0 10 0H2.8125C1.95125 0 1.25 0.70125 1.25 1.5625V15.9375C1.25 16.6925 1.7875 17.3237 2.5 17.4688V1.5625C2.5 1.39375 2.64375 1.25 2.8125 1.25H12.3213C12.143 1.10311 11.9608 0.960981 11.775 0.82375H11.7762Z" fill="#4F4F4F"/>
</svg>
