<svg width="61" height="60" viewBox="0 0 61 60" fill="none" xmlns="http://www.w3.org/2000/svg">
<path d="M34.4238 21.8701L22.2571 33.8701C21.9721 34.149 21.7458 34.4808 21.5913 34.8463C21.4369 35.2119 21.3574 35.604 21.3574 36.0001C21.3574 36.3961 21.4369 36.7882 21.5913 37.1538C21.7458 37.5194 21.9721 37.8512 22.2571 38.1301C22.5399 38.4113 22.8763 38.6344 23.247 38.7867C23.6176 38.9391 24.0152 39.0175 24.4167 39.0175C24.8183 39.0175 25.2158 38.9391 25.5865 38.7867C25.9571 38.6344 26.2935 38.4113 26.5763 38.1301L38.743 26.1301C39.3157 25.5652 39.6375 24.799 39.6375 24.0001C39.6375 23.2012 39.3157 22.435 38.743 21.8701C38.1702 21.3052 37.3934 20.9878 36.5834 20.9878C35.7734 20.9878 34.9966 21.3052 34.4238 21.8701Z" fill="#BDBDBD" fill-opacity="0.2"/>
<path d="M31.3518 46.2001L27.4585 50.0101C25.2728 52.2314 22.3346 53.5815 19.2043 53.8028C16.074 54.0241 12.9705 53.1012 10.486 51.2101C9.17282 50.1428 8.10122 48.8158 7.34042 47.3146C6.57962 45.8134 6.14653 44.1715 6.06914 42.495C5.99174 40.8185 6.27176 39.1446 6.8911 37.5814C7.51044 36.0183 8.45533 34.6007 9.66474 33.4201L13.9839 29.1301C14.269 28.8512 14.4953 28.5194 14.6497 28.1538C14.8041 27.7883 14.8836 27.3961 14.8836 27.0001C14.8836 26.6041 14.8041 26.212 14.6497 25.8464C14.4953 25.4808 14.269 25.149 13.9839 24.8701C13.7011 24.5889 13.3647 24.3657 12.9941 24.2134C12.6234 24.0611 12.2259 23.9827 11.8243 23.9827C11.4228 23.9827 11.0252 24.0611 10.6546 24.2134C10.2839 24.3657 9.9475 24.5889 9.66474 24.8701L5.80182 28.7101C2.54772 31.8181 0.547603 35.9852 0.172812 40.4376C-0.201979 44.89 1.07402 49.3253 3.76391 52.9201C5.36041 54.9629 7.37935 56.6472 9.68661 57.8612C11.9939 59.0753 14.5366 59.7912 17.146 59.9614C19.7553 60.1317 22.3715 59.7524 24.8208 58.8487C27.2701 57.945 29.4964 56.5376 31.3518 54.7201L35.671 50.4601C36.2438 49.8952 36.5655 49.129 36.5655 48.3301C36.5655 47.5312 36.2438 46.765 35.671 46.2001C35.0982 45.6352 34.3214 45.3178 33.5114 45.3178C32.7014 45.3178 31.9246 45.6352 31.3518 46.2001ZM53.7993 3.66011C50.1296 0.979505 45.5959 -0.291825 41.0452 0.0835868C36.4944 0.458999 32.2379 2.45548 29.0706 5.70011L25.7856 9.00011C25.4101 9.26932 25.0961 9.6133 24.864 10.0098C24.6319 10.4062 24.4867 10.8464 24.438 11.3017C24.3892 11.757 24.438 12.2173 24.581 12.6529C24.7241 13.0884 24.9583 13.4895 25.2685 13.8301C25.5513 14.1113 25.8877 14.3345 26.2583 14.4868C26.629 14.6391 27.0265 14.7175 27.4281 14.7175C27.8296 14.7175 28.2272 14.6391 28.5978 14.4868C28.9685 14.3345 29.3049 14.1113 29.5877 13.8301L33.5418 9.90011C35.7154 7.66906 38.6501 6.31162 41.7791 6.08999C44.9082 5.86836 48.0094 6.79828 50.4839 8.70011C51.8069 9.76752 52.887 11.0979 53.6538 12.6045C54.4207 14.1111 54.857 15.7602 54.9345 17.4443C55.012 19.1284 54.7289 20.8097 54.1035 22.3786C53.4782 23.9475 52.5247 25.3689 51.3052 26.5501L46.986 30.8401C46.7009 31.119 46.4746 31.4508 46.3202 31.8164C46.1658 32.1819 46.0863 32.5741 46.0863 32.9701C46.0863 33.3661 46.1658 33.7583 46.3202 34.1238C46.4746 34.4894 46.7009 34.8212 46.986 35.1001C47.2688 35.3813 47.6052 35.6045 47.9758 35.7568C48.3465 35.9091 48.744 35.9875 49.1456 35.9875C49.5471 35.9875 49.9447 35.9091 50.3153 35.7568C50.686 35.6045 51.0224 35.3813 51.3052 35.1001L55.6243 30.8401C57.462 29.0104 58.8845 26.8165 59.7977 24.4037C60.7108 21.9909 61.0938 19.4143 60.9213 16.8445C60.7487 14.2747 60.0246 11.7704 58.7968 9.49748C57.569 7.22453 55.8656 5.23481 53.7993 3.66011Z" fill="#BDBDBD" fill-opacity="0.2"/>
</svg>
