<svg width="92" height="21" viewBox="0 0 92 21" fill="none" xmlns="http://www.w3.org/2000/svg">
<path d="M5.28895 14.27C4.30895 14.27 3.37895 14.1 2.49895 13.76C1.63895 13.4 0.928945 12.9 0.368945 12.26L1.77895 10.37C2.83895 11.41 3.91895 11.93 5.01895 11.93C5.61895 11.93 6.10895 11.82 6.48895 11.6C6.88895 11.36 7.08895 11.01 7.08895 10.55C7.08895 10.07 6.88895 9.71 6.48895 9.47C6.08895 9.23 5.63895 9.04 5.13895 8.9C4.65895 8.74 4.34895 8.64 4.20895 8.6C3.10895 8.26 2.28895 7.77 1.74895 7.13C1.20895 6.47 0.938945 5.7 0.938945 4.82C0.938945 4.12 1.10895 3.47 1.44895 2.87C1.80895 2.25 2.33895 1.75 3.03895 1.37C3.75895 0.989999 4.62895 0.799999 5.64895 0.799999C6.60895 0.799999 7.43895 0.909999 8.13895 1.13C8.85895 1.35 9.52895 1.7 10.1489 2.18L8.85895 4.19C8.49895 3.85 8.05895 3.58 7.53895 3.38C7.03895 3.18 6.57895 3.08 6.15895 3.08C5.63895 3.08 5.20895 3.2 4.86895 3.44C4.52895 3.68 4.35895 3.99 4.35895 4.37C4.33895 4.83 4.50895 5.18 4.86895 5.42C5.22895 5.64 5.80895 5.88 6.60895 6.14C6.94895 6.24 7.16895 6.31 7.26895 6.35C8.26895 6.67 9.04895 7.12 9.60895 7.7C10.1689 8.26 10.4489 9 10.4489 9.92C10.4489 11.16 9.99895 12.2 9.09895 13.04C8.21895 13.86 6.94895 14.27 5.28895 14.27ZM22.5045 0.739999C23.6845 0.739999 24.7545 1.02 25.7145 1.58C26.6745 2.14 27.4245 2.94 27.9645 3.98C28.5045 5.02 28.7745 6.23 28.7745 7.61C28.7745 8.97 28.4745 10.16 27.8745 11.18C27.2945 12.2 26.4745 12.98 25.4145 13.52C24.3745 14.06 23.1945 14.33 21.8745 14.33C21.0345 14.33 20.2245 14.16 19.4445 13.82C18.6645 13.48 18.0245 13.02 17.5245 12.44V20.09H14.1645V1.07H17.0745L17.3745 2.96C18.0345 2.28 18.7945 1.74 19.6545 1.34C20.5345 0.939999 21.4845 0.739999 22.5045 0.739999ZM21.2145 11.66C21.9545 11.66 22.6345 11.49 23.2545 11.15C23.8945 10.79 24.4045 10.31 24.7845 9.71C25.1645 9.11 25.3545 8.43 25.3545 7.67C25.3545 6.49 24.9745 5.52 24.2145 4.76C23.4745 3.98 22.5545 3.59 21.4545 3.59C20.4745 3.59 19.6445 3.83 18.9645 4.31C18.3045 4.79 17.8245 5.46 17.5245 6.32V8.87C17.7245 9.69 18.1545 10.36 18.8145 10.88C19.4945 11.4 20.2945 11.66 21.2145 11.66ZM45.6186 1.31V14H42.2586V12.17C41.7986 12.71 41.1786 13.21 40.3986 13.67C39.6186 14.11 38.7086 14.33 37.6686 14.33C36.4486 14.33 35.3586 14.08 34.3986 13.58C33.4386 13.06 32.6786 12.3 32.1186 11.3C31.5586 10.3 31.2786 9.09 31.2786 7.67C31.2786 6.29 31.5686 5.08 32.1486 4.04C32.7286 2.98 33.4986 2.17 34.4586 1.61C35.4386 1.03 36.5086 0.739999 37.6686 0.739999C39.7286 0.739999 41.2686 1.5 42.2886 3.02L42.5286 1.31H45.6186ZM38.5986 11.57C39.5186 11.57 40.2886 11.34 40.9086 10.88C41.5486 10.4 41.9986 9.73 42.2586 8.87V6.11C42.0186 5.33 41.5486 4.7 40.8486 4.22C40.1686 3.74 39.3786 3.5 38.4786 3.5C37.4186 3.5 36.5186 3.88 35.7786 4.64C35.0386 5.38 34.6686 6.33 34.6686 7.49C34.6686 8.25 34.8486 8.94 35.2086 9.56C35.5686 10.18 36.0486 10.67 36.6486 11.03C37.2486 11.39 37.8986 11.57 38.5986 11.57ZM62.7982 1.31L54.6082 20.09H51.3082L54.2782 13.46L48.3982 1.31H52.1782L55.9582 9.71L59.7382 1.31H62.7982ZM75.6996 12.83C75.1396 13.29 74.4496 13.66 73.6296 13.94C72.8296 14.2 72.0196 14.33 71.1996 14.33C69.7996 14.33 68.5596 14.06 67.4796 13.52C66.4196 12.98 65.5996 12.21 65.0196 11.21C64.4396 10.19 64.1496 9 64.1496 7.64C64.1496 6.3 64.4596 5.13 65.0796 4.13C65.6996 3.11 66.5196 2.33 67.5396 1.79C68.5796 1.25 69.6896 0.98 70.8696 0.98C72.8696 0.98 74.5196 1.52 75.8196 2.6L74.1396 4.79C73.7596 4.49 73.3096 4.24 72.7896 4.04C72.2896 3.82 71.7496 3.71 71.1696 3.71C70.1496 3.71 69.2796 4.09 68.5596 4.85C67.8596 5.59 67.5096 6.52 67.5096 7.64C67.5096 8.76 67.8796 9.7 68.6196 10.46C69.3796 11.2 70.3396 11.57 71.4996 11.57C72.4996 11.57 73.3396 11.29 74.0196 10.73L75.6996 12.83ZM85.265 11.45C86.205 11.45 87.155 11.12 88.115 10.46L89.645 12.95C88.965 13.37 88.235 13.71 87.455 13.97C86.675 14.21 85.925 14.33 85.205 14.33C83.745 14.33 82.475 14.04 81.395 13.46C80.335 12.88 79.515 12.08 78.935 11.06C78.375 10.04 78.095 8.87 78.095 7.55C78.095 6.31 78.415 5.17 79.055 4.13C79.695 3.09 80.565 2.27 81.665 1.67C82.765 1.05 83.965 0.739999 85.265 0.739999C86.985 0.739999 88.415 1.25 89.555 2.27C90.695 3.27 91.455 4.69 91.835 6.53L82.055 9.83C82.395 10.35 82.845 10.75 83.405 11.03C83.965 11.31 84.585 11.45 85.265 11.45ZM84.995 3.38C83.935 3.38 83.065 3.75 82.385 4.49C81.725 5.23 81.395 6.19 81.395 7.37C81.395 7.59 81.405 7.76 81.425 7.88L88.085 5.51C87.825 4.89 87.445 4.38 86.945 3.98C86.445 3.58 85.795 3.38 84.995 3.38Z" fill="#4F4F4F"/>
</svg>
