<svg width="55" height="55" viewBox="0 0 55 55" fill="none" xmlns="http://www.w3.org/2000/svg">
<path d="M53.6203 24.9974L3.43278 0.247392C3.03942 0.0533674 2.59759 -0.0243742 2.16048 0.0235286C1.72336 0.0714315 1.30961 0.242936 0.969028 0.517392C0.643777 0.786251 0.401011 1.13926 0.268021 1.53674C0.135031 1.93422 0.11709 2.36041 0.216215 2.76739L6.96872 26.9999L0.124965 51.1649C0.0319507 51.5048 0.021093 51.8614 0.0932656 52.2062C0.165438 52.551 0.318628 52.8742 0.540516 53.15C0.762403 53.4257 1.0468 53.6463 1.37083 53.7939C1.69487 53.9415 2.0495 54.0121 2.40622 53.9999C2.76333 53.9978 3.11495 53.913 3.43278 53.7524L53.6203 29.0024C53.994 28.8136 54.3076 28.5267 54.5265 28.1734C54.7455 27.8201 54.8614 27.414 54.8614 26.9999C54.8614 26.5858 54.7455 26.1797 54.5265 25.8264C54.3076 25.4731 53.994 25.1862 53.6203 24.9974ZM5.94215 47.4974L10.9837 29.2499H32.0625V24.7499H10.9837L5.94215 6.50239L47.4837 26.9999L5.94215 47.4974Z" fill="#BDBDBD" fill-opacity="0.2"/>
</svg>
