<svg width="20" height="20" viewBox="0 0 20 20" fill="none" xmlns="http://www.w3.org/2000/svg">
<path d="M7.8125 6.20497H9.25586V12.8124C9.25586 12.8983 9.32617 12.9686 9.41211 12.9686H10.584C10.6699 12.9686 10.7402 12.8983 10.7402 12.8124V6.20497H12.1875C12.3184 6.20497 12.3906 6.05458 12.3105 5.95302L10.123 3.18349C10.1084 3.16481 10.0898 3.14971 10.0684 3.13932C10.0471 3.12893 10.0237 3.12354 10 3.12354C9.97629 3.12354 9.95288 3.12893 9.93156 3.13932C9.91024 3.14971 9.89157 3.16481 9.87695 3.18349L7.68945 5.95106C7.60938 6.05458 7.68164 6.20497 7.8125 6.20497ZM17.1484 12.2265H15.9766C15.8906 12.2265 15.8203 12.2968 15.8203 12.3827V15.3905H4.17969V12.3827C4.17969 12.2968 4.10938 12.2265 4.02344 12.2265H2.85156C2.76562 12.2265 2.69531 12.2968 2.69531 12.3827V16.2499C2.69531 16.5956 2.97461 16.8749 3.32031 16.8749H16.6797C17.0254 16.8749 17.3047 16.5956 17.3047 16.2499V12.3827C17.3047 12.2968 17.2344 12.2265 17.1484 12.2265Z" fill="#4F4F4F"/>
</svg>
